<?xml version="1.0" encoding="utf-8"?>
<!-- Generator: Adobe Illustrator 15.0.0, SVG Export Plug-In . SVG Version: 6.00 Build 0)  -->
<!DOCTYPE svg PUBLIC "-//W3C//DTD SVG 1.1//EN" "http://www.w3.org/Graphics/SVG/1.1/DTD/svg11.dtd">
<svg version="1.1" id="Layer_1" xmlns="http://www.w3.org/2000/svg" xmlns:xlink="http://www.w3.org/1999/xlink" x="0px" y="0px"
	 width="100px" height="100px" viewBox="50 50 100 100" enable-background="new 50 50 100 100" xml:space="preserve">
<g>
	<path d="M107.024,51.764c0.177-0.418,1.112,0.063,0.997,0.597C107.441,52.412,107.332,51.985,107.024,51.764z"/>
	<path d="M111.415,54.157c0.393,0.138,0.528,0.532,0.598,0.998C111.619,55.017,111.481,54.623,111.415,54.157z"/>
	<path d="M109.019,54.356c0.352,0.05,0.454,0.343,0.399,0.799C109.068,55.107,108.964,54.81,109.019,54.356z"/>
	<path d="M107.424,56.75c-0.401-0.332-0.928-0.534-0.997-1.198C106.826,55.885,107.353,56.088,107.424,56.75z"/>
	<path d="M111.614,56.152c0.131,0,0.263,0,0.398,0c0,0.133,0,0.267,0,0.399c-0.136,0-0.268,0-0.398,0
		C111.614,56.418,111.614,56.285,111.614,56.152z"/>
	<path d="M107.424,57.149c0.091-0.551,0.703,0.295,0.396,0.599C107.791,57.779,107.435,57.073,107.424,57.149z"/>
	<path d="M113.01,56.951C113.931,57.566,113.119,58.521,113.01,56.951L113.01,56.951z"/>
	<path d="M114.807,58.147c0.01-0.014-0.017-0.198,0-0.199c0.705-0.125,0.017,0.887-0.201,0.598
		C114.615,58.56,114.784,58.169,114.807,58.147z"/>
	<path d="M111.614,58.545c0.299-0.704,0.377,0.368,0.196,0.399C111.694,58.965,111.562,58.665,111.614,58.545z"/>
	<path d="M113.605,59.343c0.162,0.106,0.327,0.208,0.601,0.2c-0.037,0.162-0.2,0.199-0.2,0.399c-0.132,0-0.268,0-0.4,0
		C113.605,59.743,113.605,59.543,113.605,59.343z"/>
	<path d="M109.817,59.943c-0.167,0.229-0.264,0.534-0.199,0.997C109.298,60.647,108.989,59.845,109.817,59.943z"/>
	<path d="M91.664,70.115c0.664-0.136,0.321,0.413,0.199,0.599C91.63,70.681,91.695,70.351,91.664,70.115z"/>
	<path d="M85.281,76.101c0.022-0.51,0.667-0.397,1.197-0.399C86.667,76.421,85.692,75.98,85.281,76.101z"/>
	<path d="M112.609,77.497c-0.033,0.788,0.308-0.063,0.601,0.399c-0.154,0.728-0.638-0.02-1.399,0.2
		C111.985,77.803,112.109,77.461,112.609,77.497z"/>
	<path d="M75.707,78.495C76.569,78.578,75.494,79.653,75.707,78.495L75.707,78.495z"/>
	<path d="M113.21,80.29C112.522,79.773,114.234,79.808,113.21,80.29L113.21,80.29z"/>
	<path d="M114.006,79.891c0.134,0,0.267,0,0.399,0c0,0.132,0,0.265,0,0.399c-0.133,0-0.266,0-0.399,0
		C114.006,80.156,114.006,80.023,114.006,79.891z"/>
	<path d="M75.707,81.287c-0.215,0.186-0.063,0.735-0.598,0.598C75.07,81.45,75.271,81.251,75.707,81.287z"/>
	<path d="M73.511,85.477c-0.524-0.734,0.518-1.604,0.798-2.194C74.695,83.877,73.677,84.769,73.511,85.477z"/>
	<path d="M68.325,96.847c0.585,0.169-0.259,0.502,0,0.997C67.858,97.792,68.209,96.969,68.325,96.847z"/>
	<path d="M65.132,103.031c-0.064-0.353,1.117-0.357,0.798,0.199C65.513,103.314,65.402,103.093,65.132,103.031z"/>
	<path d="M64.933,103.43C64.463,104.072,64.128,102.728,64.933,103.43L64.933,103.43z"/>
	<path d="M63.736,108.417c0.625-0.204,2.107,2.762,0.599,2.394c0.747-0.411,0.048-0.205-0.201-0.998
		c-0.052-0.167,0.078-0.441,0-0.598c-0.213-0.43-0.917-0.588-0.598-1.196C63.765,108.088,64.042,108.37,63.736,108.417z"/>
	<path d="M64.533,112.407c0.498,0.03,0.059,0.675,0,0.799C64.037,113.173,64.477,112.528,64.533,112.407z"/>
	<path d="M124.779,120.785C125.486,122.195,124.361,122.114,124.779,120.785L124.779,120.785z"/>
	<path d="M121.783,126.37c0.078-0.378,0.256,0.127,0.202,0.4C121.909,127.149,121.731,126.643,121.783,126.37z"/>
	<path d="M120.19,127.767c-0.342,0.645-0.543-0.499-0.598-0.799C120.377,126.649,119.662,127.83,120.19,127.767z"/>
	<path d="M120.19,127.168c0.268,0.131,0.37,0.427,0.398,0.8C120.238,127.918,120.135,127.623,120.19,127.168z"/>
	<path d="M72.114,130.559C72.631,129.873,72.597,131.585,72.114,130.559L72.114,130.559z"/>
	<path d="M64.134,131.559c-0.088,0.244-0.254,0.408-0.598,0.396C63.443,131.53,63.822,131.575,64.134,131.559z"/>
	<path d="M73.909,143.128c0.347-0.646,0.817,0.171,0.2,0.199C74,143.332,73.842,143.255,73.909,143.128z"/>
	<path d="M82.488,144.125c0.132,0,0.265,0,0.399,0c-0.122,0.179-0.24,0.356,0,0.399c-0.147,0.356-0.362,0.029-0.598,0
		C82.327,144.362,82.488,144.324,82.488,144.125z"/>
	<path d="M84.084,144.125c-0.104,0.296-0.296,0.504-0.399,0.797C83.261,144.858,83.642,143.977,84.084,144.125z"/>
	<path d="M101.638,146.718c0.135,0,0.268,0,0.401,0c0.267,0.124,0.538,0.045,0.794,0.199c-0.041-0.025,0.425,0.232,0.399,0.199
		c0.05,0.066-0.06,0.355,0,0.399c0.229,0.163,1.062-0.07,0.801,0.6c-0.494,0.064-1.009-0.389-1.398-0.6
		C102.306,147.339,101.508,147.392,101.638,146.718z"/>
	<path d="M89.868,147.716c0.006-0.194,0.246-0.154,0.399-0.2c0.199,0,0.399,0,0.6,0C90.899,147.948,90.16,147.606,89.868,147.716z"
		/>
	<path d="M105.629,149.112c-0.563,0.165-0.52-0.281-1-0.2C104.617,148.35,105.654,148.543,105.629,149.112z"/>
	<path d="M104.23,149.512c0.007-0.194,0.245-0.155,0.398-0.2c0.201,0,0.402,0,0.6,0C105.263,149.744,104.521,149.402,104.23,149.512
		z"/>
	<path d="M106.826,149.512C106.387,150.119,105.547,149.281,106.826,149.512L106.826,149.512z"/>
	<path d="M104.033,50.167c-0.19-0.718,0.86-0.354,0.998-0.199C104.892,50.234,104.497,49.869,104.033,50.167z"/>
	<path d="M106.427,49.969c0.193-0.612,0.531,0.229,0.798,0.199C107.168,50.639,106.691,49.938,106.427,49.969z"/>
	<path d="M109.019,50.565c0.121-0.358,0.307-0.06,0.399,0c-0.028-0.018,0.417,0.224,0.399,0.199c0.047,0.068-0.062,0.353,0,0.399
		c0.377,0.281,0.991,0.178,1.197,0.798c0.057,0.356-0.188,0.41-0.2,0.199c-0.106-0.16-0.206-0.323-0.199-0.598
		C109.645,51.669,109.683,50.769,109.019,50.565z"/>
	<path d="M102.635,51.963c0.133-0.198,0.542-0.111,0.799,0c0.2,0.087,0.467,0.543,0.6,0.597c0.789,0.33,1.641,0.086,1.596,0.601
		C104.879,53.305,103.556,52.307,102.635,51.963z"/>
	<path d="M109.618,51.764c0.757,0.572,1.37,1.289,1.797,2.193C110.698,53.342,110.049,52.66,109.618,51.764z"/>
	<path d="M108.421,52.762c0.122-0.129,0.645,0.064,0.798,0.199c0.066,0.058-0.051,0.323,0,0.399c0.399,0.601,1.394,0.74,1.396,1.795
		c0.263-0.24,0.312-0.078,0.598,0c-0.036,0.226-0.198,0.11-0.198,0c-0.488,0.022-0.042,0.66,0.198,0.598
		c-0.521,0.333-1.396-1.589-1.795-1.994c-0.101-0.102-0.25,0.136-0.199,0.199C108.7,53.31,108.956,53,108.421,52.762z"/>
	<path d="M107.424,53.161c0.416,0.059-0.297,0.539,0.396,0.598c-0.198,0.501-0.879-0.159-0.796-0.598
		c0.169-0.038,0.188,0.077,0.2,0.199C107.394,53.396,107.412,53.282,107.424,53.161z"/>
	<path d="M106.625,55.155c0.354-0.535,0.54,0.775,0.997,0.798C107.194,56.559,107.011,55.25,106.625,55.155z"/>
	<path d="M110.415,55.953c-0.203-0.246-0.068-0.03,0.2,0.199c0.089,0.076,0.555,0.312,0.598,0.399
		c0.303,0.61-0.105,1.13,0.202,1.396C110.966,58.186,110.579,56.661,110.415,55.953z"/>
	<path d="M102.635,64.93c0.571,0.458,0.939-0.368,1.398-0.599c0.301-0.153,0.553-0.072,0.797-0.2
		c0.797-0.42,1.593-1.124,2.396-1.396c0.623,0.321-0.409,0.631-0.399,0.998c0.84-0.622,1.927-0.998,2.992-1.397
		c0,0.134,0,0.267,0,0.399c0.487-0.021,0.043-0.659-0.199-0.598c-0.833,0.1-1.164,0.698-1.997,0.798
		c0.441-0.426,0.695-1.034,1.598-0.997c-0.002-0.632,0.607,0.075,0.798-0.798c0.536,0.388,1.999,0.017,1.397-0.798
		c0.469,0.293,0.368,0.421,0.997,0.199c0.179-0.91-0.333-1.13-0.399-1.794c0.688-0.177,0.64,2.127,0.997,0.998
		c0.743,0.692-0.761,0.823-0.799,1.396c0.454,0.193,0.576-0.474,0.799-0.6c0.137-0.076,0.25,0.167,0.2,0.2
		c0.374-0.246,0.288-0.553,0.797-0.598c0.501,0.694-0.967,0.8-1.396,1.196c0.055,0.7,0.744-0.5,0.799,0.2
		c-0.08-0.579,1.161-0.935,1.994-1.197c-0.603,0.593-1.336,1.055-1.994,1.596c0.131,0.596,0.426-0.191,0.798,0
		c0.076,0.606-0.6,0.174-0.798,0.397c-0.17,0.192,0.2,0.394,0.198,0.399c-0.069,0.596-0.776,0.331-0.997,0.798
		c-0.379-0.199,0.509-0.805,0.6-1.197c-0.422-0.54-0.581,0.536-1.197,0c0,0.134,0,0.267,0,0.399c0.088,0.297,0.255-0.078,0.598,0
		c-0.055,0.41-0.531,0.398-0.798,0.6c-0.118,0.188,0.4,0.163,0.398,0.199c-0.026,0.549-0.382-0.121-0.596,0.598
		c-0.054,0.17,0.163,0.463,0.197,0.399c-0.195,0.361-0.838,0.774-0.998,1.198c-0.045,0.125,0.087,0.503,0,0.599
		c-0.134,0.147-0.269-0.575-0.199-0.599c-0.316,0.111-0.021,0.365-0.199,0.599c-0.105,0.139-0.492,0.155-0.797,0.399
		c-0.25,0.197-0.626,0.748-0.999,0.996c-0.208,0.14-0.238,0.047-0.397,0.2c-0.117,0.111-0.513,0.322-0.997,0.399
		c0.537-0.727,1.529-0.997,2.192-1.596c-0.694-0.177-2.878,1.163-3.392,2.193c0.547,0.147,0.403-0.396,0.801-0.398
		c0.144,0.638-0.747,0.371-1.198,0.598c-0.212,0.108-0.405,0.253-0.598,0.399c-0.176,0.133-0.385,0.466-0.6,0.598
		c-0.209,0.129-0.623,0.035-0.797,0.2c-0.101,0.093,0.098,0.506,0,0.598c-0.021,0.021-0.579-0.357-0.401,0.201
		c-0.061,0.405,0.576-0.042,0.6-0.201c0.18,0.258-0.6,1.255-1.395,1.197c0.061,0.545,0.871,0.366,1.196,0.199
		c0.344-0.176-0.137-0.321,0.399-0.398c0.503,0.617-0.587,0.849-0.999,1.197c-0.435,0.367-0.771,0.876-1.196,0.997
		c0.455,0.598,2.242,0.223,2.791,0.601c0.397-0.004,0.256-0.545,0.801-0.399c-0.052,0.216-0.399,0.134-0.399,0.399
		c0.303,0.015,0.808,0.348,1.396,0.598c-0.478,0.533-0.587,0.195-1.396,0.398c0.931,0.332,2.148,0.378,2.991,0.798
		c-0.212-0.651-1.372-0.356-1.396-1.196c0.639-0.174,0.415,0.516,0.799,0.598c0.662,0.062,0.753-0.443,1.195-0.598
		c0.397,0.482,0.315,0.2,0.999,0.398c-0.085,0.417,0.137,0.529,0.199,0.798c0.295-0.281,0.43-0.637,0.399,0.2
		c0.232-0.032,0.168-0.364,0.198-0.599c0.542-0.143-0.142,0.941,0.399,0.797c-0.242,0.284-0.761,0.454-0.997,0.199
		c-0.141,0.749,1.511,0.488,1.197-0.199c0.48-0.081,0.434,0.365,0.997,0.199c0.002,1.014-0.697,0.087-0.997,0.799
		c0.247,0.692,0.629,0.319,0.6,0.997c0.176-0.154,0.449-0.215,0.797-0.199c0.757,0.396-1.027-0.123-0.6,0.599
		c0.594,0.205,1.141,0.457,1.198,1.197c1.55-0.217,1.461,1.2,2.792,1.198c0.155,0.177,0.216,0.45,0.199,0.797
		c0.38-0.373,0.361,0.119,0.997,0c-0.516,0.523,0.323,0.158,0.2,0.799c0.744-0.016,0.644-0.3,0.997,0.199
		c0.5-0.597,1.775-0.918,1.197-1.995c0.838-0.24,0.875,0.321,1.397,0.4c0.445-0.048-0.202-0.38-0.2-0.4
		c0.017-0.126,1.226-0.938,0.2-0.997c0.274-0.864,0.821,0.015,1.195,0.199c-0.062,0.272-0.499,0.167-0.796,0.201
		c0.497,0.838-0.499,0.956,0,1.796c-0.499-0.722-0.583,0.104-0.399,0.798c-0.341,0.075-0.377-0.155-0.401-0.398
		c-0.557,0.022-0.447,0.766-0.596,0.796c-0.323,0.07-0.189-0.928-0.999-0.597c-0.451,0.11,0.241,0.311-0.201,0.597
		c0.228,0.261,1.255,0.278,1.397,0.399c0.11,0.095-0.125,0.234-0.197,0.2c0.188,0.091,0.285-0.149,0.596,0
		c0.373,0.176,0.668,0.959,1.2,1.397c0.304,0.251,0.63,0.208,0.797,0.398c0.243,0.276,0.269,0.799,0.599,1.196
		c0.048,0.059,0.373,0.145,0.397,0.201c0.031,0.064-0.052,0.361,0,0.399c0.133,0.093,0.468-0.096,0.601,0
		c0.103,0.076-0.129,0.257-0.201,0.199c0.099,0.08,0.718,0.25,0.999,0.598c-0.229-0.702-0.509-1.353-0.999-1.796
		c0.144-0.693,0.622,0.522,0.799,0.6c0.063,0.028,0.362-0.054,0.399,0c0.082,0.118-0.141,0.253-0.199,0.199
		c0.29,0.267,1.027,0.511,1.396,0.997c0.132,0.176,0.061,0.257,0.198,0.399c0.293,0.306,0.696,1.473,0.998,1.996
		c0.467,0.813,1.141,1.383,1.195,2.194c-0.439-0.462-0.73-1.083-0.796-0.398c0.035,0.226,0.198,0.11,0.198,0
		c0.373,1.55,1.833,2.872,1.396,4.587c0.128-0.353,1.131-0.845,0.6-1.196c0.501-0.554,0.592,0.99,0.997,1.196
		c0.538-0.619-0.483-0.763,0-1.596c0.168-0.038,0.188,0.078,0.198,0.2c0.729-0.667,0.948-1.846,1.396-2.793
		c0.146-0.062,0.332,0.663,0.202,0.797c-0.029,0.029-0.398-0.026-0.4,0c-0.047,0.398,0.446,0.48,0.198,0.997
		c-0.163-0.038-0.198-0.2-0.398-0.199c-0.018,0.545,0.333,0.401,0,0.797c0.039,0.226,0.2,0.111,0.2,0
		c0.437,0.928-0.325,1.683-0.2,2.594c0.727-0.257,0.415-0.897,0.398-1.198c0.007,0.094,0.532,0.434,0.202-0.199
		c-0.155-0.293-0.18-0.208,0-0.797c0.249,0.049,0.199,0.396,0,0.399c-0.05,0.285,0.506,0.431,0.398,0.2
		c0.085,0.182,0.171,0.665,0,0.997c-0.037,0.07-0.382,0.146-0.398,0.2c-0.083,0.238,0.061,0.553,0,0.797
		c-0.017,0.059-0.4,0.384-0.4,0.399c-0.006,0.103,0.17,0.282,0.198,0.199c-0.036,0.107-0.397,0.191-0.398,0.2
		c-0.026,0.143,0.281,0.327,0.2,0.598c-0.014,0.045-0.371-0.044-0.399,0c-0.258,0.394,0.49,0.43,0,0.799
		c0.645,0.177,0.28-0.651,0.598-0.799c0.123-0.528,0.345,1.08-0.198,0.799c-0.149,0.612,0.547,0.382,0.4,0.996
		c-0.209,0.426-0.521,0.763-0.601,1.198c-0.038,0.218,0.227,0.649,0.2,0.797c-0.045,0.24-0.341,0.257-0.399,0.398
		c-0.115,0.286,0.113,0.711,0,0.998c0.006-0.013-0.743,0.146-0.399,0.8c-0.234-0.299-0.499-0.564-0.798-0.8
		c-0.59,0.291,0.263,0.779,0,1.396c0.234-0.029,0.168-0.363,0.2-0.596c0.116-0.761,0.468,0.774,0,0.596
		c0.497,0.752-0.53,1.089-0.6,1.398c-0.072,0.318,0.252,0.313-0.397,0.598c0.396,0.04,0.544,0.362-0.399,0.399
		c0.089,0.178,0.176,0.356,0.399,0.399c-0.376,0.516-0.503,1.166-0.999,1.596c-0.228,0.198-0.18,0.537-0.598,0.2
		c-0.01,0.341,0.149,0.517,0.399,0.598c-0.112,0.577-0.312-0.307-0.599-0.199c-0.658,1.592,0.89,2.699,0.599,4.588
		c-0.785-0.023-0.611-0.866-1.396-0.399c-0.237,0.826,0.264,1.396,0.199,1.796c-0.087,0.528-0.7,0.521-0.6,1.196
		c-0.14-0.301-0.924-0.111-1.195,0.199c-0.071,0.083,0.35,0.435-0.2,0.6c-0.271-0.062-0.165-0.5-0.199-0.799
		c-1.014,0.011-0.096,1.214-0.798,1.796c-0.288-0.046-0.07-0.596-0.399-0.599c-0.738,0.415,0.606,0.843,0,1.197
		c-0.688-0.802-0.019,0.244-0.399,0.797c-0.244-0.086-0.408-0.254-0.399-0.598c-0.59,0.35,0.116,1.062,0,1.597
		c-0.481-0.183-0.527-0.803-0.598-1.397c-0.295,0.232-0.504,0.232-0.799,0c-0.576,0.589,0.28,1.44,0,2.394
		c-0.194,0.312-0.407-1.041-0.598-1.396c-0.521,0.275,0.496,1.293,0,1.596c-0.288-0.045-0.069-0.596-0.399-0.6
		c-0.146,0.513,0.23,1.199,0,2.195c0.531-0.407,0.443-0.505,0.6-0.996c0.54-0.143-0.143,0.938,0.397,0.797
		c-0.022,0.332-0.85-0.228-0.796,0.599c-0.353-0.182-0.365-0.7-0.6-0.997c-0.562,0.163-0.51,1.316,0,1.197
		c-0.005,0.304-1.479,0.437-1.197-0.2c-0.18,0.517-0.238,1.094-0.199,1.597c0.022,0.32,0.343,0.496,0.398,0.798
		c0.061,0.322-0.217,0.686-0.199,0.998c0.012,0.208,0.393,0.125,0.4,0.199c0.051,0.489-0.468,1.229,0,1.796
		c-0.409-0.061-0.392-0.54-0.799-0.6c-0.04,0.356,0.263,0.425,0.199,0.798c-0.005,0.017-0.398-0.017-0.399,0
		c-0.096,1.012,0.529,1.663,0.399,2.993c0.34,0.008,0.516-0.149,0.6-0.399c0.565,0.031-0.915,1.22,0.197,1.197
		c0.098,0.497-0.587,0.229-0.797,0.799c-0.205,0.554,0.211,1.396-0.399,0.598c-0.599,0.131,0.19,0.427,0,0.798
		c-0.952,0.194-1.442,1.405-2.393,0.996c0.131,0.204,0.458,0.207,0.397,0.6c-0.389-0.232-1.116-0.655-1.597-0.199
		c0.09,0.295,0.257-0.078,0.6,0c-0.229,0.916-1.048,0.001-0.6,0.996c-0.44,0.11-0.283-0.38-0.596-0.398
		c0.033,0.169-0.077,0.188-0.2,0.199c0.13,0.203,0.457,0.208,0.4,0.599c-0.781-0.047-0.366,1.1-1.199,0.998
		c-0.095,0.204,0.122,0.614,0,0.798c-0.041,0.065-0.341-0.057-0.398,0c-0.062,0.062,0.066,0.346,0,0.399
		c-0.24,0.188-0.52,0.138-0.798,0.398c-0.111,0.106-0.515,1.013-0.797,0.399c0.048,0.506-0.616,1.333-1.397,1.596
		c0.14,0.146,0.497,0.977-0.199,0.799c0.345-0.535-0.142-0.759,0.397-1.199c-0.524-0.058-0.653,0.278-0.598,0.8
		c-0.499,0.165-0.784,0.547-1.396,0.6c0.339-0.327,0.496-0.835,1.197-0.8c-0.59-0.574-1.439,0.281-2.394,0
		c0.772,0.271,0.514,0.574-0.398,0.6c0.537,0.404,0.773-0.009,1.396,0c-0.348,0.961-1.361,0.053-1.995,0.598
		c0.08,0.674,0.775-0.53,0.6,0.398c0.873-0.102,0.656-0.061,1.396-0.198c0.01,0.889-1.171,0.41-1.597,0.397
		c-0.366-0.009-0.923,0.249-1.195,0.2c-0.006,0,0.249-0.384,0.198-0.399c-0.337-0.097-0.438,0.302-0.798,0.199
		c-0.042-0.01,0.041-0.375,0-0.397c-0.137-0.077-0.654-0.024-0.998-0.2c-0.363-0.186-0.478-0.606-0.798-0.797
		c-0.139-0.083-0.47,0.097-0.597,0c-0.188-0.144-0.054-0.414-0.2-0.6c-0.169-0.205-0.656-0.255-0.799-0.4
		c-0.128-0.128-0.067-0.47-0.2-0.598c-0.157-0.153-0.414-0.056-0.597-0.198c-0.23-0.176-0.355-0.58-0.6-0.799
		c-0.365-0.323-0.721-0.374-0.996-0.798c-0.399-0.055,0.213,0.442,0,0.6c0.011-0.009-0.401-0.217-0.399-0.2
		c0.097,0.705,0.735,1.273,1.796,1.396c0.207,0.332-0.61,0.474-0.601,0.201c-0.007,0.229,0.78,0.763,0.999,0.996
		c0.161,0.174,0.434,0.229,0.397,0.6c-0.545,0.279-0.355-0.411-0.597-0.6c-0.219-0.17-0.555-0.05-0.8-0.199
		c-0.131-0.079-0.235-0.29-0.398-0.4c0.001,0.002-0.39-0.187-0.398-0.197c-0.057-0.066,0.065-0.347,0-0.4
		c-0.398-0.31-1.206-0.192-1.198-0.997c-0.481,0.082-0.433-0.365-0.997-0.198c0.448,0.616,0.806,1.32,1.396,1.793
		c-0.706,0.671-1.02-0.781-1.396-1.195c-0.09-0.1-0.489,0.083-0.6,0c-0.046-0.035,0.053-0.377,0-0.399
		c-0.288-0.11-0.3,0.189-0.396,0.199c-0.152,0.015-0.467-0.214-0.8-0.199c-0.551,0.027-1.352-0.132-1.197,0.599
		c-0.74,0.142-0.855-0.341-1.595-0.199c0.211,0.11,0.502,0.731,1.196,0.998c0.563,0.216,2.283-0.112,0.998,0.197
		c-0.177,0.156-0.45,0.217-0.798,0.201c0.049,0.217,0.396,0.136,0.4,0.398c0.24-0.225,0.36-0.568,0.997-0.398
		c-0.234,0.515-2.59,1.101-3.99,0.799c-0.088-0.021-0.136-0.376-0.198-0.4c-0.237-0.084-0.56,0.079-0.799,0
		c-0.244-0.08-0.256-0.524-0.399-0.6c-0.312-0.16-1.039,0.201-0.996-0.396c-0.377,0.149-0.139,0.594-0.6,0.199
		c0.507,0.489,0.848,1.147,1.596,1.396c-0.275,0.454-1.465,0.152-1.196-0.6c-0.217,0.05-0.135,0.396-0.399,0.4
		c0.497,0.567,1.314,0.812,2.394,0.797c-0.104,0.161-0.207,0.324-0.2,0.598c-0.618,0.069-0.951-0.46-1.395,0
		c-0.079,0.48,0.907-0.109,0.597,0.6c-0.51-0.073-1.254-0.345-0.796-0.799c-1.857-0.138-2.072-1.918-3.591-2.393
		c-0.037-0.171,0.077-0.188,0.199-0.199c-0.174-0.59-0.299,0.462-0.799,0.199c0.438-0.417,0.411-0.75-0.199-0.998
		c0.322-0.624,0.633,0.409,0.998,0.399c0.177-0.09,0.358-0.176,0.399-0.399c-0.005-0.299-0.241-0.018-0.2,0
		c-0.176-0.078-0.383-0.783-0.398,0c-0.612-0.194,0.229-0.531,0.199-0.798c-0.396-0.232-0.303,0.365-0.399,0.398
		c-0.271,0.098-0.334-0.206-0.399-0.198c-0.528,0.054-0.585,0.596-0.997,0.997c-0.203-0.131-0.207-0.458-0.599-0.399
		c-0.055-0.321,0.188-0.343,0.199-0.598c-0.057-0.705-0.538,0.702-0.598,0c-0.344,0.061,0.259,0.693-0.599,0.598
		c0.258,0.318,0.263,0.804-0.199,0.399c0.164,1.029,0.837,0.77,0.199,1.796c-0.488-0.024-0.042-0.66,0.2-0.6
		c-0.178-0.353-0.81-0.255-0.599-0.998c-0.254,0.046-0.261,0.597,0,0.598c0,0.294-0.404,0.096-0.598,0.201
		c-1.013,0.553-1.134,2.098-2.395,2.394c-0.113-1.101,0.716-1.328,1.197-1.995c0.093-0.126-0.063-0.451,0-0.6
		c0.149-0.339,0.822-0.697,0.999-1.195c-0.087-0.296-0.257,0.079-0.599,0c-0.122-0.9,0.794-1.061,0.997-1.396
		c0.03-0.047-0.429-1.037,0.399-0.799c0.065-0.357-0.529-0.335-0.399-0.199c-0.453-0.473-0.172-1.073-0.797-1.397
		c-0.658,0.32,0.029,0.746-0.399,1.197c-0.215-0.049-0.135-0.396-0.399-0.399c-0.47,0.055-0.122,0.884,0.199,0.799
		c-0.48,0.532-0.716-0.869-1.197-0.997c-0.266,0.206-0.455,0.561-0.599,0.598c-0.319,0.083-0.107-0.658-0.796-0.198
		c-0.132,0.086-0.478,1.01,0,0.598c-0.652,0.561-1.209,0.599-1.796,1.597c-0.496-0.031-0.058-0.676,0-0.798
		c-0.156-0.042-0.553,0.398-0.599,0.398c-0.106-0.004-0.445-0.387-0.398-0.398c-0.463,0.111-0.655,0.245-0.997,0.798
		c-0.355-0.136,0.433-0.977,0.797-1.198c0.25-0.152,0.503-0.109,0.799-0.199c0.039-1.023,0.87-1.255,1.396-1.796
		c-0.345-0.395-0.718,0.868-1.596,0.6c0.584-0.547,0.931-1.33,1.198-2.195c-0.578,0.354-0.58,1.283-1.397,1.397
		c0.8-0.996,1.471-2.118,1.996-3.392c-0.34-0.074-0.378,0.154-0.4,0.399c-0.756-0.388,0.754-1.209,0-1.598
		c0.087-0.296,0.255,0.08,0.599,0c0.085-0.776-0.755-0.698,0-1.196c-0.471-0.408-0.254-0.362-0.399-1.197
		c0.339,0.074,0.375-0.155,0.399-0.398c0.464,0.298,0.305,0.488,0.199,0.996c0.342,0.011,0.518-0.146,0.599-0.398
		c0.174-0.462-0.419-0.646-0.599-0.997c-0.125-0.244-0.047-0.683,0-0.599c-0.546-0.989-1.403-1.256-1.396-2.792
		c-0.463,1.065,0.607,2.314,0.998,3.192c-0.561,0.302-0.865-1.695-1.396-2.195c-0.93,0.328,0.358,0.694,0.398,0.798
		c0.233,0.606,0.033,0.905,0,1.397c-0.371-0.524-0.71-0.974-0.998-1.597c-0.41-0.89,0.355-2.063-0.599-2.993
		c-0.177,0.089-0.357,0.175-0.399,0.398c-0.356,0.06-0.012-0.774,0.399-0.599c-0.276-0.121-0.029-0.768-0.399-0.796
		c-0.537,0.129,0.102,0.475,0,0.796c-0.012,0.039-0.359-0.028-0.398,0c-0.241,0.176,0.066,1.269-0.599,1
		c-0.026,0.356,0.246,0.419,0.2,0.797c-0.578,0.094-0.498-1.477-0.799-0.998c-0.507-0.157,0.562-0.698,0-0.997
		c-0.469-0.004-0.586,0.343-1.196,0.198c-0.41,0.055-0.188,0.744-0.597,0.799c-0.402,0.486,0.281-0.74,0.397-0.997
		c-0.617-0.235,0.031-0.502-0.397-0.799c0.061-0.271,0.497-0.165,0.796-0.199c-0.61-0.432-0.468-0.465-0.6-1.195
		c0.178,0.153,0.452,0.213,0.799,0.199c0.792-0.063-0.224-0.694,0.6-0.601c-0.169-0.584-0.643,0.119-0.999,0
		c0.212-0.186,0.062-0.735,0.599-0.598c-0.162-0.579-0.95-0.959-0.2-1.397c-0.051-0.414-0.875-0.055-0.996-0.398
		c0.324-0.723-0.568-1.167-0.799-1.596c-0.054-0.097,0.063-0.308,0-0.398c-0.292-0.423-0.697-0.488-0.998-0.799
		c-0.133-0.138-0.071-0.46-0.2-0.598c-0.389-0.418-0.204-0.017-0.199-0.599c0.001-0.36-0.545-0.649-0.4-0.998
		c-0.784,0.705,0.188,1.386,0.599,1.995c-0.07,0.262-0.352,0.312-0.399,0.6c-0.045-0.549-0.251-0.921-0.599-1.597
		c-0.204,0.129-0.206,0.459-0.598,0.398c-0.105-0.159-0.209-0.323-0.199-0.598c0.193,0.006,0.154,0.244,0.199,0.398
		c0.234-0.031,0.167-0.363,0.2-0.598c-0.087-0.297-0.255,0.078-0.599,0c0.143-0.837,0.231-1.294,0-2.194
		c0.161,0.037,0.199,0.2,0.399,0.197c-0.255-0.516-0.412-0.625-0.998-0.398c0.138-0.352,0.222-0.617,0-0.797
		c0.058-0.464,0.532-0.459,0.799-0.2c0.137-0.535-0.412-0.385-0.599-0.598c0.048-0.515,0.343,0.272,0.798,0
		c-0.375-0.464-0.824-0.851-0.399-1.597c0.464,0.136,0.535,0.664,0.998,0.798c0.192-0.194-0.167-0.569-0.2-0.798
		c-0.005-0.036,0.201-0.389,0.2-0.397c-0.082-0.871-1.398-2.668-1.995-2.993c-0.11-0.062-0.255,0.322-0.199,0.397
		c-0.25-0.333-0.303-1.2-0.4-1.396c-0.046,0.452,1.007,0.629,0.599,0.4c-0.473-0.267,1.434,0.325,0.599,0.798
		c0.157,0.439,0.698,0.498,0.998,0.797c-0.196-0.115-0.091-0.382-0.2-0.599c-0.077-0.154-0.358-0.3-0.399-0.397
		c-0.06-0.144,0.173-0.251,0.2-0.199c-0.479-0.898-1.24-1.109-1.597-2.195c0.418-0.204,0.275,0.325,0.399,0.399
		c0.149,0.087,0.448-0.085,0.599,0c0.534,0.297,0.848,1.544,1.595,1.995c0.424-0.065-0.284-0.619-0.399-0.799
		c0.132-0.599,0.427,0.19,0.798,0c0.008-1.554-2.007-2.229-3.591-2.792c0.377-0.678,0.7,0.341,1.196,0.198
		c-0.033-0.63-0.788-0.541-1.395-0.599c1.436-0.634,2.177,1.145,3.79,0.997c-0.152-0.651-1-0.369-1.396-0.597
		c-0.43-0.247-0.395-0.94-0.999-0.799c0.457-0.423,0.708,0.088,1.398-0.199c-0.105,0.16-0.209,0.323-0.2,0.598
		c0.194-0.005,0.154-0.244,0.2-0.398c1.006,0.351,1.239,0.397,2.394,0.199c-0.277-0.319-0.983-0.214-1.196-0.598
		c0.139-0.498,0.533,0.369,0.997,0.199c0.254-0.786-0.546-0.519-0.798-0.799c-0.142-0.541,0.94,0.144,0.798-0.399
		c-0.029-0.495-0.675-0.059-0.798,0c-0.475-0.115,0.408-0.495,0.798-0.398c-1.153-0.523-3.31,0.111-3.79-0.598
		c0.312-0.282,0.735,0.163,1.197,0.198c0.286,0.022,0.631-0.205,0.997-0.198c0.526,0.009,0.883,0.378,1.396,0.198
		c-0.655-0.167-0.072-0.619,0-1.397c0.028-0.29-0.243-0.689-0.199-0.996c0.077-0.521,0.375-1.232,0.599-1.795
		c-0.005-0.194-0.243-0.155-0.399-0.199c-0.22-0.53,1.244-0.674,0.2-0.797c0.195-0.205,0.394-0.404,0.599-0.599
		c-0.13-0.203-0.459-0.207-0.399-0.6c0.279,0.096,0.298-0.122,0.399-0.199c-0.012,0.011,0.411-0.218,0.399-0.199
		c0.054-0.083-0.513-0.997,0.397-0.798c-0.742-0.791-0.639,0.569-0.797,0.798c-0.041,0.058-0.365-0.061-0.399,0
		c-0.335,0.587-0.114,1.606-0.797,1.596c-0.135-0.868,0.552-1.107-0.399-0.799c0.174-0.292,0.299-0.631,0.797-0.599
		c-0.361-0.506,0.866-0.759,0.799-1.595c-1.099,0.562-2.451,0.873-3.591,1.396c0.021-0.248,0.262-0.267,0.399-0.399
		c0.431-0.42,0.188-0.384,0.997-0.6c0.237-0.061,0.25-0.327,0.399-0.398c0.104-0.049,0.303,0.061,0.399,0
		c0.454-0.284,0.466-0.7,1.397-0.597c0.223-0.184,0.064-0.374,0.2-1c0.958-0.106,0.684-1.443,1.596-1.596
		c-0.497-0.352-0.291-0.331,0-0.797c-0.556,0.111-0.559,0.772-0.799,1.196c-0.404-0.125-0.132-0.932-0.598-0.996
		c0.004,0.896-0.736-0.447-1.198,0.398c0.007,0.194,0.245,0.155,0.4,0.199c0.454-0.196-0.361,0.377-0.998,0
		c0.125-0.148,0.514-0.669,0.797-0.797c0.734-0.333,1.012,0.235,0.999-0.599c0.341-0.072,0.375,0.156,0.398,0.4
		c0.367,0.018,0.052-0.486,0-0.4c0.172-0.288,1.132-1.215,1.596-1.596c0.165-0.133,0.469-0.038,0.599-0.199
		c0.125-0.153,0.075-0.269,0.2-0.399c0.223-0.232-0.003-0.394,0-0.398c0.082-0.175,0.343-0.089,0.4-0.199
		c0.065-0.129-0.153-0.26-0.2-0.201c0.444-0.563,0.441-0.482,0.996-0.598c0.062,0.461-0.577,0.221-0.596,0.598
		c0.565,0.18,1.765-1.389,1.395-2.195c0.177,0.123,0.358,0.242,0.4,0c0.596,0.132-0.192,0.427,0,0.798
		c0.348-0.421,0.703-1.074,0.996-1.795c0.094-0.231-0.253-1.351,0.599-0.997c-0.071,0.593-0.319,1.012-0.599,1.397
		c0.246,0.607,0.761-0.292,0.999,0.199c-0.539-0.707-0.282-0.389,0.397-0.798c0.145,0.61-0.342,0.586-0.199,1.196
		c0.269-0.13,0.373-0.425,0.398-0.796c0.53,0.78-0.423,0.998-0.997,0.997c0.498,0.352,0.291,0.329,0,0.798
		c0.627-0.172,0.842-0.755,1.595-0.798c-0.069,0.261-0.35,0.314-0.399,0.598c0.607-0.655,1.716-0.81,2.594-1.196
		c-0.132-0.597-0.427,0.19-0.799,0c0.05-0.352,0.345-0.455,0.799-0.398c0.3-0.174-0.055-0.299,0.2-0.798
		c0.284-0.117,0.518-0.055,0.798-0.2c0.358-0.185,0.165-0.309,0.398-0.598c0.053-0.067,0.337,0.062,0.399,0
		c0.062-0.061-0.068-0.345,0-0.399c0.141-0.112,0.232,0.186,0.199,0.201c0.683-0.311,0.685-0.988,1.397-1.397
		c-0.112-0.451-0.312,0.243-0.6-0.199c0.114-0.187,0.556-0.302,0.2-0.4c0.168-0.296,0.502-0.428,0.997-0.398
		c-0.004-0.194-0.244-0.155-0.398-0.199c-0.053-0.235,0.584-0.288,0.598-0.598c0.006-0.084-0.129-0.305-0.199-0.2
		c0.635-0.972,1.763-1.209,2.595-2.195c0.136-0.163,0.058-0.448,0.2-0.599c0.049-0.053,0.374-0.148,0.398-0.199
		c0.05-0.108-0.243-0.232-0.199-0.399c0.009-0.036,0.437-0.584,0.398-0.997c0.358-0.025,0.422,0.244,0.799,0.199
		c-0.131-0.203-0.46-0.208-0.4-0.599c0.177-0.089,0.357-0.175,0.4-0.4c0.486,0.178,0.864,0.465,1.595,0.4
		c0.396-0.003,0.254-0.544,0.797-0.4c0.149-0.613-0.547-0.382-0.398-0.997c0.381,0.085,0.361,0.569,0.998,0.398
		c-0.146-0.453-0.601-0.596-0.998-0.797c0.046-0.287,0.595-0.069,0.598-0.399c0.302,0.299,0.304,0.895,0.999,0.798
		c-0.195-0.204-0.395-0.403-0.599-0.598c0.196-0.613,0.534,0.229,0.799,0.199c0.631-0.339,1.399-0.751,1.994-1.198
		c0.542-0.405,0.849-0.972,1.398-1.396c0.271-0.209,0.762-0.32,1.196-0.597c0.21-0.137,0.39-0.249,0.597-0.4
		c0.51-0.373,0.918-0.56,1.596-0.996c0.278-0.179,0.363-0.451,0.599-0.599c0.25-0.155,0.541-0.045,0.8-0.201
		c0.249-0.149,0.789-0.965,1.196-0.399c-0.018-0.56,1.205-1.037,1.993-1.396C103.839,64.802,102.91,64.537,102.635,64.93z
		 M126.575,90.463c-0.157-0.775-0.559-1.303-0.999-1.794C125.207,89.284,126.166,89.989,126.575,90.463z M128.169,95.052
		c0.431,0.565,0.566,1.429,0.998,1.995C129.145,96.336,128.541,94.725,128.169,95.052z M130.164,97.046
		c-0.019,0.314-0.51,0.157-0.399,0.599c0.299-0.035,0.736,0.071,0.799-0.199c-0.156-0.044-0.395-0.005-0.399-0.2
		C130.474,97.262,130.305,96.666,130.164,97.046z M128.966,110.411c-0.261,0.048-0.01,0.962,0.201,0.6
		C129.262,110.848,129.104,110.387,128.966,110.411z M120.19,126.172C119.031,125.962,120.105,127.034,120.19,126.172
		L120.19,126.172z M83.086,143.527c0.297,0.313,0.892,0.222,0.799-0.399c-0.344,0.078-0.513-0.297-0.599,0
		C83.642,143.225,83.2,143.34,83.086,143.527z M74.508,126.968c-0.045,0.022-0.44,1.001,0,0.799
		c0.394-0.753-0.049,0.952,0.401,0.799c-0.002-0.666,0.648-0.681,0.598-1.397c-0.289,0.106-0.489-0.776-0.598-0.2
		C75.5,127.352,74.472,126.986,74.508,126.968z M69.721,119.39c-0.213-0.225-0.495-1.033-0.599-0.6
		c0.183,0.715,1.079,2.288,1.396,1.995C70.172,120.571,69.86,119.533,69.721,119.39z M68.125,117.992
		C68.471,119.332,69.097,118.399,68.125,117.992L68.125,117.992z M110.415,61.938c0.314-0.019,0.692,0.026,0.6-0.399
		c-0.134,0-0.267,0-0.399,0C110.618,61.739,110.455,61.775,110.415,61.938z M102.438,71.513c-0.662,0.407,0.956,0.35,0.597-0.399
		C102.849,71.341,102.707,71.345,102.438,71.513z M101.239,72.51c0.378-0.045,0.44,0.225,0.8,0.199c0.076-0.217,0.236-0.478,0-0.199
		c-0.842,0.034-0.139-0.446,0-0.599C101.538,71.878,101.413,72.217,101.239,72.51z M106.427,77.297
		c0.469-0.195,1.266-0.064,1.195-0.797c-0.198,0-0.397,0-0.598,0C107.315,77.257,106.134,76.539,106.427,77.297z M86.078,77.297
		c0.048-0.283,0.329-0.337,0.399-0.598C86.066,76.523,85.581,77.216,86.078,77.297z M127.173,91.262
		c-0.053-0.295-0.88-0.802-0.401-0.399C126.679,91.223,127.333,92.176,127.173,91.262z M126.771,91.661
		c-0.786,0.033,0.066-0.306-0.397-0.6c-0.233,0.03-0.567-0.034-0.599,0.2C126.128,91.263,126.354,92.38,126.771,91.661z
		 M70.121,92.659c0.621,0.202,1.424-0.413,0.996-0.6c-0.003,0.202-0.349,0.252-0.398,0c0.415,0.107,0.423-0.776,0.199-0.199
		C70.521,91.996,70.461,92.468,70.121,92.659z M77.103,92.458c0.242,0.243,1.31-0.301,0.597-0.399c0.003,0.002,0,0.199,0,0.199
		C77.604,92.265,76.958,92.314,77.103,92.458z M127.173,92.857c-0.438-0.065,0.579,0.443,0,0.599
		C128.06,93.469,127.235,92.866,127.173,92.857z M78.298,93.854c-0.252,0.032-0.204-0.438-0.399-0.398
		c0.096-0.019-0.217,0.415-0.2,0.398c-0.372,0.323-1.145,0.206-0.597-0.199c-0.5-0.034-0.626,0.306-0.799,0.598
		c2.122,0.005,3.936,0.009,4.389-1.196C79.673,92.806,78.96,93.771,78.298,93.854z M127.771,93.854
		c-0.222-0.182-0.159-0.075,0,0.199C128.354,95.06,128.136,94.157,127.771,93.854z M73.313,94.053c-0.122-0.114-0.947-0.465-0.999,0
		C72.808,93.794,73.143,94.64,73.313,94.053z M74.508,94.253c0.455,0.055,0.75-0.047,0.798-0.4
		C74.851,93.799,74.556,93.903,74.508,94.253z M79.694,94.253c-0.865-0.159,0.111,0.34,0,0.399c-0.343,0.182-0.383-0.122-0.997,0
		c-0.062,0.011-0.244,0.352-0.4,0.399c-0.304,0.09-0.685-0.07-0.997,0c-0.021-0.224,0.289-0.311,0-0.399
		c-0.053,0.311-0.438,0.138-0.599,0c0.015,0.227-0.078,0.303-0.199,0.399c-0.63,0.505-1.091,0.67-1.596,0.397
		c-1.141-0.139-1.141,0.341,0,0.201c-0.035,0.566,1.229-0.166,1.196,0.399c-1.288-0.242-0.611,0.321-0.996,0.798
		c-0.026-0.574-0.251-0.948-0.999-0.798c-0.172,0.851,0.005,1.378-0.399,1.795c0.007-0.004-0.075-0.269-0.199,0
		c0.177-0.38-0.048,0.916-0.198,0.798c0.831,0.045-0.091,0.707,0.397,1.198c-0.673-0.066-0.163,0.873-0.199,1.196
		c0.006-0.05-0.374,0.145-0.398,0.198c0.11-0.242,0.007,0.365,0,0.201c0.02,0.513,0.515,0.541,0.398,1.195
		c-0.234,0.032-0.564-0.034-0.598,0.201c0.354,0.379,1.119,0.343,1.196,0.996c-0.262-0.203-0.736-0.194-0.997-0.398
		c0.189,0.584,0.298,0.741,0.398,0.997c0.523-0.509,1.543,0.176,1.598,0.798c-0.285-0.047-0.339-0.329-0.6-0.398
		c0.198,0.741,0.425,0.521,0.199,1.397c0.771,0.084-0.106-0.598,0.599-0.8c0.275,0.435,0.527-0.064,0.798,0
		c-0.026-0.005,0.148,0.371,0.2,0.399c-0.173-0.097,0.675,0.16,0.598-0.199c-0.465-0.066-0.859-0.205-0.996-0.599
		c0.972-0.234,1.023-1.494,1.197-1.994c-0.709,0.311-0.122-0.678-0.599-0.6c-0.392,0.436,0.585,1.975-0.598,1.995
		c0.269-1.193,0.243-2.682,1.595-2.793c-0.021-0.709-1.006-0.456-0.997-1.198c0.173-0.29,0.157-0.772,0.797-0.596
		c0.248-0.647-0.646-0.153-0.4-0.799c0.353-0.057,0.618,0.939,0.798,0.399c-0.232-0.034-0.215-0.314-0.199-0.599
		c0.686-0.9,1.123,0.397,1.795-0.399c-0.629-0.142,0.546-1.139,0-1.197c-0.003,0.203-0.35,0.252-0.399,0
		c0.283-0.655,0.617-0.331,0.998-0.597c-0.582-0.281,0.354-0.688,0.199-1.198c-0.347,0.016-0.62-0.044-0.798-0.199
		c-0.06,0.393,0.269,0.396,0.398,0.599c-0.314,0.019-0.156,0.51-0.598,0.4c0.286-1.297-0.61-0.174-0.799-0.999
		c0.824,0.026,1.251-0.346,2.195-0.199c-0.107-0.289,0.233-1.031-0.199-0.999c-0.045,0.155-0.005,0.395-0.2,0.4
		C79.912,94.557,79.735,94.261,79.694,94.253z M73.511,105.624c0.012,0-0.176-0.388-0.198-0.399
		c-0.431-0.198-1.04-0.114-1.199,0.399c0.658,0.141,1.17,0.425,0.999,1.396c0.516,0.196,0.69-0.378,0.997-0.2
		c0.151,0.089-0.078,0.394,0.2,0.399c-0.01,0,0.068-0.381,0.199-0.399c0.021-0.002,0.185,0.36,0.401,0.2
		c0.116-0.685-0.944,0.017-0.401-0.797c-0.235-0.098-0.452-0.213-0.599-0.4c0.455,0.058,0.75-0.048,0.799-0.399
		C74.161,104.778,73.624,105.623,73.511,105.624z M73.113,105.025c0.253,0.011,0.276,0.256,0.597,0.199
		C74.02,104.734,73.034,104.639,73.113,105.025z M73.313,95.25C72.035,95.021,72.874,95.86,73.313,95.25L73.313,95.25z
		 M131.759,96.448c0.004,0.176,0.646-0.312,0.2-0.199c-0.221,0.056-0.313,0.211-0.398,0.399
		C132.179,97.388,131.765,96.688,131.759,96.448z M70.121,97.844c0.607,0.191,0.688-1.761,0.397-1.196
		C70.57,97.23,70.067,97.259,70.121,97.844z M72.314,98.244c-0.092-0.381,0.614-0.859-0.2-0.799
		c0.134,1.133-0.359,1.637-0.397,2.595c0.265,0,0.53,0,0.796,0c0.096-1.168,0.336-2.191,0.6-3.192
		c0.008-0.211-0.096-0.506-0.2-0.199C72.85,97.314,72.708,97.905,72.314,98.244z M71.317,100.04
		c-0.049-0.835,0.951-2.111,0.199-2.395C71.361,98.601,70.996,99.606,71.317,100.04z M70.121,100.04
		c-0.231-0.693,0.46-2.149,0-1.796C70.135,98.875,69.312,99.814,70.121,100.04z M131.361,100.637
		c-0.105-0.287,0.777-0.486,0.199-0.597c0,0.569-1.087-0.869-0.598-0.199C131.238,99.961,130.99,100.607,131.361,100.637z
		 M71.717,101.235c0.058-0.414,0.539,0.296,0.597-0.399c-0.156-0.043-0.232-0.166-0.2-0.399c-0.973,0.234-2.14-0.373-2.593,0
		c0.154,0.046,0.393,0.007,0.399,0.2c-0.201,0.004-0.251,0.35,0,0.399c-0.104-0.713,1.79-0.455,1.994-0.2
		C71.698,100.884,71.436,101.165,71.717,101.235z M132.158,102.832c-0.105-0.027,0.188-0.636,0.2-0.601
		c0.018,0.056-0.393-0.19-0.399-0.198c-0.063-0.08,0.01-0.269-0.2-0.2C131.959,102.334,131.815,102.746,132.158,102.832z
		 M72.913,106.82c0.271-0.644-0.481-0.247-0.799-0.397c-0.071-0.034-0.118-0.349-0.2-0.399c-0.416-0.266-0.986-0.194-0.997,0.2
		C71.807,106.197,72.154,106.715,72.913,106.82z M68.723,108.019C68.99,109.007,69.666,108.329,68.723,108.019L68.723,108.019z
		 M67.926,114.003c-0.114-0.415-0.569-0.646-0.2-0.998c-0.133,0-0.267,0-0.4,0c-0.153,0.044-0.393,0.007-0.399,0.201
		c0.53,0.201,0.542,0.921,0.999,1.195c0.042-0.224,0.221-0.31,0.399-0.398c0.336,0.659,0.728,1.268,1.197,1.795
		C69.254,115.007,68.666,113.677,67.926,114.003z M66.729,114.401c-0.116-0.134-0.814-0.582-0.798,0.2
		C66.32,114.445,66.852,114.545,66.729,114.401z M69.122,115.997c-0.463-0.334-0.714-0.882-1.196-1.197
		C68.016,115.385,68.869,116.238,69.122,115.997z M70.318,117.594c-0.007-0.275,0.095-0.439,0.2-0.601
		c-0.472,0.056-0.762-1.072-1.196-0.396C69.822,116.762,69.954,117.295,70.318,117.594z M70.518,119.987
		c0.089-0.506-0.392-1.441-0.598-0.998C70.326,119.116,70.053,119.923,70.518,119.987z M111.213,139.936
		c-0.332-0.085-0.958-0.876-1.195-0.398C110.25,139.719,111.713,140.289,111.213,139.936z M112.211,140.334c0.266,0,0.533,0,0.799,0
		c0-0.132,0-0.266,0-0.398c-0.266,0-0.533,0-0.799,0C112.211,140.068,112.211,140.202,112.211,140.334z M75.307,141.731
		c0.645-0.087,0.792-0.672,1.198-0.998C75.842,140.803,75.638,141.331,75.307,141.731z M111.614,141.731
		c-0.297,0.222-1.359,0.291-0.401,0.397c0.365-0.564,1.281-0.581,1.598-1.195C112.391,140.833,111.729,141.646,111.614,141.731z
		 M82.687,141.931c-0.042-0.061-0.727-0.858-0.398-0.398C82.663,142.056,82.885,142.206,82.687,141.931z M103.634,142.129
		c0-0.001-0.337,0.046-0.2,0.201c0.091,0.102,0.499-0.095,0.6,0c0.061,0.057-0.037,0.32,0,0.399
		c0.057,0.127,0.747,0.758,0.797,0.798c0.377,0.294,0.922,0.267,1.195,0.397c0.125,0.06,0.274,0.6,0.401,0.2
		c-0.662-0.627-1.535-0.87-1.995-1.396c-0.187-0.215-0.271-0.682-0.398-0.799c-0.113-0.104-0.485-0.123-0.6-0.199
		c-0.133-0.088-0.266-0.577-0.398-0.199C103.178,141.834,103.629,141.901,103.634,142.129z M84.482,142.529
		c-0.043-0.154-0.005-0.394-0.199-0.4c-0.432,0.414-0.01,0.682,0.399,0.799c0.44-0.172,0.44-1.283,0-0.799
		C84.989,142.179,84.711,142.459,84.482,142.529z M106.427,142.729c0.605-0.01,0.774,0.419,1.195,0.598
		c0.061-0.407,0.399-0.531,0.6-0.798c-0.298-0.161-0.685,0.236-0.798,0.2c-0.048-0.016,0.039-0.363,0-0.399
		c-0.292-0.272-1.614-0.591-0.997-0.201C106.736,142.182,106.564,142.567,106.427,142.729z M109.817,142.529
		c0.938,0.098,0.482-0.36-0.199-0.199C109.393,142.744,109.403,142.753,109.817,142.529z M111.415,142.729
		c-0.762,1.003,1.785-0.594,0.995-0.2C111.93,142.448,111.978,142.894,111.415,142.729z M85.48,143.128
		c0.464-0.065,0.859-0.204,0.998-0.599C86.13,142.714,85.408,142.523,85.48,143.128z M109.817,143.128c0.267,0,0.531,0,0.798,0
		c0-0.134,0-0.266,0-0.398c-0.267,0-0.531,0-0.798,0C109.817,142.862,109.817,142.994,109.817,143.128z M101.439,143.327
		c-0.286-0.049-0.338-0.329-0.598-0.399C100.666,143.338,101.358,143.824,101.439,143.327z M108.421,143.925
		c-0.439-0.041-1.487-0.485-1.595-0.199C107.218,143.815,108.058,144.466,108.421,143.925z M109.618,144.125
		C110.291,144.73,110.223,143.387,109.618,144.125L109.618,144.125z M85.68,144.524c0.425,0.305,1.086,0.136,1.197,0
		C86.54,144.459,85.98,144.258,85.68,144.524z M105.829,145.32c-1.119-0.215-0.123,0.376,0,0.399c0.308,0.062,0.97,0.143,1.195-0.2
		C106.387,145.668,106.035,145.362,105.829,145.32z M106.025,146.917c-0.104-0.86-0.741-0.431-1.396-0.398
		c0.017-0.311-0.579-0.138-0.198,0C104.967,147.075,105.491,146.606,106.025,146.917z"/>
	<path d="M95.254,143.925c-0.832-0.168-0.939,0.388-1.596,0.399c-0.248-0.399,0.915-0.53,0.598-0.399
		C94.661,143.758,95.216,143.031,95.254,143.925z"/>
	<path d="M116.401,139.537c-0.146,0.186-0.365,0.303-0.6,0.398C115.3,139.851,116.132,139.508,116.401,139.537z"/>
	<path d="M110.615,59.343c0.093,0.226,0.103,0.884,0.199,1.596c-0.283-0.379-0.464-0.866-0.598-1.396
		C110.449,59.576,110.571,59.5,110.615,59.343z"/>
	<path d="M116.6,79.492c0.266-0.567,0.888,0.153,1.196,0.199C117.681,80.109,117.043,79.404,116.6,79.492z"/>
	<path d="M117.396,80.29c0.278,0.453,0.69,0.772,0.997,1.195c-0.571,0.43-1.062-0.925-2.192-0.598
		c0.366-0.349,0.024-0.693-0.601-0.598c0.035,0.232,0.365,0.167,0.601,0.199c-0.507,0.496-1.393-0.325-1.395-0.997
		c0.594,0.03,0.644,0.475,1.193,0.598c0.524,0.117,1.377-0.54,1.796,0.2c0.246-0.087,0.409-0.257,0.399-0.599
		c0.552,0.377,1.067,0.125,1.397,0.398c0.146,0.122-0.199,0.225-0.199,0.2c-0.005,0.201,0.558,0.207,0.398,0.598
		c-0.61-0.121-1.04-0.424-1.597-0.598C118.604,81.409,117.951,80.387,117.396,80.29z"/>
	<path d="M77.899,80.489c0.187,0.146,0.301,0.364,0.399,0.598C78.212,81.59,77.869,80.755,77.899,80.489z"/>
	<path d="M77.5,81.287c0.691,0.39-0.245,0.796-0.199,1.196C76.721,82.205,77.655,81.796,77.5,81.287z"/>
	<path d="M75.906,81.486c0.368,0.171-0.141,0.358-0.2,0.598c-0.053,0.208,0.201,0.167,0.2,0.201c-0.028,0.5-0.532,1.259-0.997,1.396
		c0.031-0.233-0.045-0.355-0.201-0.398C75.198,83.316,75.514,82.141,75.906,81.486z"/>
	<path d="M116.998,81.886C116.474,82.378,115.841,81.31,116.998,81.886L116.998,81.886z"/>
	<path d="M80.293,82.285c0.216,0.652-1.381,0.987-1.596,1.396c-0.187-0.113-0.302-0.554-0.4-0.199
		c-0.511,0.035,0.092-0.575,0.2-0.599c0.134-0.029,0.343,0.307,0.599,0.201C79.588,82.88,80,82.593,80.293,82.285z"/>
	<path d="M122.185,85.675c-0.73-0.486,1.494,0.723,0.399,0.6C122.514,86.012,122.232,85.96,122.185,85.675z"/>
	<path d="M70.518,88.269c0.016-0.011,0.268-0.332,0.399-0.199C70.994,88.145,69.34,89.113,70.518,88.269z"/>
	<path d="M67.127,90.862c0.275-0.159,0.382-0.219,0.199,0C67.025,91.229,66.122,91.445,67.127,90.862z"/>
	<path d="M68.325,91.859c0.697,0.458-0.625,0.555-0.599,0.998C67.238,92.609,68.324,92.277,68.325,91.859z"/>
	<path d="M74.909,97.645C74.923,97.597,74.684,97.354,74.909,97.645L74.909,97.645z"/>
	<path d="M66.13,98.442C66.539,97.47,67.471,98.098,66.13,98.442L66.13,98.442z"/>
	<path d="M67.726,99.041c-0.633-0.41,0.563-0.398,0-0.599c0.004-0.193,0.243-0.155,0.398-0.199c-0.036,0.168,0.079,0.188,0.2,0.199
		c-0.06,0.407-0.541,0.392-0.599,0.798C67.5,99.203,67.615,99.041,67.726,99.041z"/>
	<path d="M136.35,104.229c0.279,0.136-0.1,0.427-0.202,0.598c-0.114,0.191-0.258,0.645-0.398,0.798
		c-0.154,0.172-0.658,0.222-0.797,0.399c-0.129,0.161-0.071,0.264-0.2,0.399c-0.097,0.101-0.231,0.508-0.399,0.797
		c-0.295-0.509,0.428-1.122,0.798-1.596C135.559,105.104,136.062,104.679,136.35,104.229z"/>
	<path d="M63.936,109.812c-0.193-0.005-0.154-0.244-0.199-0.398c-0.232-0.032-0.354,0.044-0.398,0.2
		c-0.433,0.032-0.092-0.707-0.2-0.998C63.59,108.83,63.863,109.221,63.936,109.812z"/>
	<path d="M65.132,115.798c0.162,0.037,0.199,0.199,0.398,0.199c0,0.134,0,0.267,0,0.399c-0.339-0.074-0.376,0.155-0.398,0.398
		C64.816,116.474,65.057,116.163,65.132,115.798z"/>
	<path d="M62.54,123.378c0.162-0.154,0.23-0.456,0.399-0.6C63.383,122.406,63.174,123.321,62.54,123.378z"/>
	<path d="M123.98,122.78c-0.279-0.239-0.019-0.078,0.199,0c-0.22,0.679,0.528,1.515-0.199,0.996
		C123.98,123.445,123.98,123.113,123.98,122.78z"/>
	<path d="M73.909,128.166c0.52-0.643-0.152,1.037,0.2,0.798c-0.037,0.228-0.2,0.111-0.2,0c-0.192,0.005-0.153,0.245-0.199,0.399
		c-0.233-0.032-0.167-0.363-0.199-0.6C73.938,128.858,73.892,128.48,73.909,128.166z"/>
	<path d="M73.113,143.527C72.575,144.03,72.333,142.573,73.113,143.527L73.113,143.527z"/>
	<path d="M85.081,145.52c0.526,0.538,1.141,0.987,1.795,1.397C86.46,147.061,85.263,146.276,85.081,145.52z"/>
	<path d="M93.858,146.12c0.231-0.055-0.936,0.541-1.198,0.2c-0.191-0.253,1.592-0.342,1.398-0.399
		C94.768,146.137,93.692,146.158,93.858,146.12z"/>
	<path d="M99.046,146.32c-0.329-0.462,0.354,0.336,0.397,0.397C99.642,146.994,99.419,146.843,99.046,146.32z"/>
	<path d="M109.817,146.12c0.085,0.439-1.199,0.497-0.599,0.797c-0.182,0.221-0.446,0.139-0.798,0
		c0.072-0.229,0.352-0.504,0.398-0.199C109.291,146.656,109.19,146.026,109.817,146.12z"/>
	<path d="M100.443,147.716c-0.054-0.821,1.284,0.593,1.795,0.599C101.672,148.864,101.084,147.75,100.443,147.716z"/>
	<path d="M104.431,147.716c0.14-0.381,0.312,0.216,0,0.199c0.006,0.194,0.244,0.155,0.399,0.2c-0.037,0.161-0.201,0.198-0.201,0.398
		c-0.132,0-0.265,0-0.398,0C104.147,148.097,104.37,147.984,104.431,147.716z"/>
	<path d="M107.424,148.713c-0.147,0.186-0.363,0.303-0.598,0.399C106.324,149.025,107.155,148.682,107.424,148.713z"/>
</g>
</svg>
